<?xml version="1.0" encoding="utf-8"?>
<!-- Generator: Adobe Illustrator 17.1.0, SVG Export Plug-In . SVG Version: 6.00 Build 0)  -->
<!DOCTYPE svg PUBLIC "-//W3C//DTD SVG 1.1//EN" "http://www.w3.org/Graphics/SVG/1.1/DTD/svg11.dtd">
<svg version="1.1" id="Layer_1" xmlns="http://www.w3.org/2000/svg" xmlns:xlink="http://www.w3.org/1999/xlink" x="0px" y="0px"
	 viewBox="0 0 60 40" enable-background="new 0 0 60 40" xml:space="preserve">
<path fill="#035B31" d="M21.5,22.7h-3.1L18,24c-0.1,0.2-0.1,0.3-0.1,0.4c0,0.2,0.1,0.3,0.3,0.4V25h-2.3v-0.2c0.1,0,0.2-0.1,0.3-0.2
	c0.1-0.1,0.1-0.3,0.2-0.5l2.5-7.1c0.1-0.2,0.1-0.4,0.1-0.5c0-0.2-0.1-0.4-0.3-0.4v-0.2h2.4V16C21.1,16,21,16.2,21,16.4
	c0,0.1,0,0.3,0.1,0.4l2.6,7.2c0.1,0.3,0.2,0.5,0.3,0.6c0.1,0.1,0.2,0.2,0.3,0.2V25h-2.5v-0.2c0.2,0,0.3-0.2,0.3-0.4
	c0-0.1,0-0.2-0.1-0.4L21.5,22.7z M21.1,21.4L20,18.1l-1.1,3.3H21.1z"/>
<path fill="#035B31" d="M28.8,25l-2.5-6.4v5.7c0,0.1,0,0.2,0.1,0.3c0,0.1,0.1,0.1,0.2,0.2V25h-2v-0.2c0.1,0,0.2-0.1,0.2-0.2
	c0-0.1,0.1-0.2,0.1-0.3v-7.9c0-0.1,0-0.2-0.1-0.3c0-0.1-0.1-0.1-0.2-0.2v-0.2h2.6V16C27.1,16,27,16.1,27,16.3c0,0.1,0,0.2,0.1,0.3
	l1.9,4.8l1.9-4.7c0.1-0.2,0.1-0.4,0.1-0.5c0-0.2-0.1-0.3-0.2-0.3v-0.2h2.6V16c-0.1,0-0.2,0.1-0.2,0.2c0,0.1-0.1,0.2-0.1,0.3v7.9
	c0,0.1,0,0.2,0.1,0.3c0,0.1,0.1,0.1,0.2,0.2V25h-2.1v-0.2c0.1,0,0.2-0.1,0.2-0.2c0-0.1,0.1-0.2,0.1-0.3v-5.7L28.8,25z"/>
<path fill="#035B31" d="M38.7,25l-2.5-6.4v5.7c0,0.1,0,0.2,0.1,0.3c0,0.1,0.1,0.1,0.2,0.2V25h-2v-0.2c0.1,0,0.2-0.1,0.2-0.2
	c0-0.1,0.1-0.2,0.1-0.3v-7.9c0-0.1,0-0.2-0.1-0.3c0-0.1-0.1-0.1-0.2-0.2v-0.2h2.6V16c-0.2,0.1-0.2,0.2-0.2,0.4c0,0.1,0,0.2,0.1,0.3
	l1.9,4.8l1.9-4.7c0.1-0.2,0.1-0.4,0.1-0.5c0-0.2-0.1-0.3-0.2-0.3v-0.2h2.6V16c-0.1,0-0.2,0.1-0.2,0.2c0,0.1-0.1,0.2-0.1,0.3v7.9
	c0,0.1,0,0.2,0.1,0.3c0,0.1,0.1,0.1,0.2,0.2V25H41v-0.2c0.1,0,0.2-0.1,0.2-0.2c0-0.1,0.1-0.2,0.1-0.3v-5.7L38.7,25z"/>
<path fill="#035B31" d="M50.8,16.4v5.2c0,1-0.1,1.7-0.4,2.2c-0.5,0.9-1.5,1.3-3,1.3c-1.1,0-1.9-0.2-2.5-0.7
	c-0.3-0.3-0.6-0.7-0.7-1.1c-0.1-0.5-0.2-1-0.2-1.7v-5.2c0-0.1,0-0.2-0.1-0.3c0-0.1-0.1-0.1-0.2-0.2v-0.2h2.1v0.2
	c-0.1,0-0.2,0.1-0.2,0.2c0,0.1-0.1,0.2-0.1,0.3V21c0,0.5,0,0.9,0.1,1.2c0,0.3,0.1,0.5,0.2,0.6c0.3,0.5,0.9,0.7,1.6,0.7
	c0.8,0,1.3-0.2,1.6-0.7c0.1-0.2,0.2-0.4,0.2-0.6c0-0.3,0.1-0.7,0.1-1.2v-4.6c0-0.1,0-0.2-0.1-0.3c0-0.1-0.1-0.1-0.2-0.2v-0.2h2v0.2
	c-0.1,0-0.2,0.1-0.2,0.2C50.8,16.1,50.8,16.2,50.8,16.4z"/>
<g>
	<path fill="#035B31" d="M15,23.2c-0.1,0.1-0.1,0.1-0.2,0.1h-4.2v-2.4h2.6c0.1,0,0.2,0,0.2,0.1c0.1,0.1,0.1,0.2,0.1,0.3h0.2v-1H9.2
		v3.7c0,0.1,0,0.2-0.1,0.3c0,0.1-0.1,0.1-0.2,0.2v0.2h5.9c0.1,0,0.2,0,0.2,0.1c0.1,0.1,0.1,0.2,0.1,0.3h0.2v-2.3h-0.2
		C15,23.1,15,23.2,15,23.2z"/>
	<path fill="#035B31" d="M9.1,16.4c0,0.1,0.1,0.2,0.1,0.3V20h4.5v-0.9h-0.2c0,0.2-0.1,0.3-0.1,0.3c-0.1,0.1-0.1,0.1-0.2,0.1h-2.6
		v-2.1h4c0.1,0,0.2,0,0.2,0.1c0.1,0.1,0.1,0.2,0.1,0.3h0.2v-2.3H15c0,0.2-0.1,0.3-0.1,0.3c-0.1,0.1-0.1,0.1-0.2,0.1H8.9v0.2
		C9,16.2,9,16.3,9.1,16.4z"/>
</g>
<g>
	<path fill="#005A31" d="M52.7,16.7c0,0.4-0.4,0.8-0.8,0.8c-0.4,0-0.8-0.4-0.8-0.8c0-0.5,0.4-0.8,0.8-0.8
		C52.4,15.9,52.7,16.3,52.7,16.7z M52.6,16.7c0-0.4-0.3-0.7-0.7-0.7c-0.4,0-0.7,0.3-0.7,0.7c0,0.4,0.3,0.7,0.7,0.7
		C52.3,17.4,52.6,17.1,52.6,16.7z"/>
	<path fill="#005A31" d="M52.3,16.6c0,0.1-0.1,0.3-0.1,0.4c0,0-0.1,0-0.1,0c0-0.1-0.1-0.3-0.1-0.4c0,0,0,0,0,0c0,0.1,0,0.3,0,0.4
		c0,0-0.1,0-0.1,0c0-0.2,0-0.4,0-0.5c0,0,0.1,0,0.1,0c0,0,0,0,0,0c0,0.1,0.1,0.2,0.1,0.3c0,0,0,0,0,0C52.2,16.7,52.2,16.7,52.3,16.6
		c-0.1,0-0.1-0.1-0.1-0.1c0,0,0,0,0,0c0,0,0.1,0,0.1,0c0,0.2,0,0.4,0,0.5c0,0-0.1,0-0.1,0C52.3,16.9,52.3,16.7,52.3,16.6
		C52.3,16.6,52.3,16.6,52.3,16.6z"/>
	<path fill="#005A31" d="M51.8,16.5C51.8,16.5,51.8,16.5,51.8,16.5c-0.1,0.1-0.1,0.1-0.2,0.1c0,0.2,0,0.3,0,0.4c0,0-0.1,0-0.1,0
		c0-0.1,0-0.3,0-0.4c-0.1,0-0.1,0-0.2,0c0,0,0-0.1,0-0.1C51.6,16.5,51.7,16.5,51.8,16.5z"/>
</g>
</svg>
